<svg width="296.000000" height="32.000000" viewBox="0 0 296 32" fill="none" xmlns="http://www.w3.org/2000/svg" xmlns:xlink="http://www.w3.org/1999/xlink">
	<desc>
			Created with Pixso.
	</desc>
	<defs/>
	<path id="Path" d="M30.2334 0L1.7666 0C0.790527 0 0 0.790649 0 1.76672L0 30.2346C0 31.2094 0.790527 32 1.7666 32L17.0933 32L17.0933 19.608L12.9229 19.608L12.9229 14.7787L17.0933 14.7787L17.0933 11.2173C17.0933 7.08398 19.6172 4.83337 23.3052 4.83337C25.0718 4.83337 26.5894 4.96533 27.0322 5.02405L27.0322 9.34399L24.4746 9.34534C22.4692 9.34534 22.0815 10.2987 22.0815 11.696L22.0815 14.78L26.8638 14.78L26.2412 19.6094L22.0815 19.6094L22.0815 32L30.2358 32C31.2095 32 32 31.2094 32 30.2333L32 1.76672C32 0.790649 31.2095 0 30.2334 0Z" fill="#FFFFFF" fill-opacity="1.000000" fill-rule="nonzero"/>
	<path id="Shape" d="M280 0C275.655 0 275.111 0.0186768 273.404 0.0959473C267.593 0.362671 264.364 3.58667 264.097 9.40271C264.019 11.1107 264 11.6547 264 16C264 20.3453 264.019 20.8906 264.096 22.5973C264.363 28.408 267.586 31.6373 273.403 31.9041C275.111 31.9813 275.655 32 280 32C284.345 32 284.891 31.9813 286.597 31.9041C292.403 31.6373 295.64 28.4133 295.903 22.5973C295.981 20.8906 296 20.3453 296 16C296 11.6547 295.981 11.1107 295.904 9.40405C295.643 3.59863 292.415 0.364014 286.599 0.09729C284.891 0.0186768 284.345 0 280 0ZM286.467 2.97729C284.779 2.90002 284.272 2.88403 280 2.88403C275.728 2.88403 275.223 2.90002 273.535 2.97595C269.195 3.17334 267.175 5.23206 266.976 9.53467C266.9 11.2227 266.883 11.728 266.883 16C266.883 20.2733 266.898 20.7787 266.976 22.4653C267.173 26.76 269.188 28.8267 273.535 29.0254C275.221 29.1027 275.728 29.1187 280 29.1187C284.275 29.1187 284.779 29.1027 286.467 29.0254C290.807 28.828 292.827 26.7667 293.025 22.4667C293.102 20.78 293.117 20.2747 293.117 16.0013C293.117 11.7294 293.103 11.2227 293.025 9.53601C292.828 5.23206 290.803 3.17468 286.467 2.97729ZM286.62 7.45996C286.62 6.40002 287.48 5.54004 288.542 5.54004C289.602 5.54004 290.46 6.40002 290.46 7.45996C290.46 8.52002 289.602 9.38 288.542 9.38C287.48 9.38 286.62 8.52002 286.62 7.45996ZM271.784 16C271.784 11.4626 275.463 7.78406 280 7.78406C284.537 7.78406 288.216 11.4626 288.216 16C288.216 20.5387 284.537 24.2173 280 24.2173C275.463 24.2173 271.784 20.5374 271.784 16ZM280 21.3334C277.055 21.3334 274.667 18.9467 274.667 16C274.667 13.0547 277.055 10.6666 280 10.6666C282.945 10.6666 285.333 13.0547 285.333 16C285.333 18.9467 282.945 21.3334 280 21.3334Z" clip-rule="evenodd" fill="#FFFFFF" fill-opacity="1.000000" fill-rule="evenodd"/>
	<path id="Path" d="M214 0C205.164 0 198 7.16272 198 16C198 22.7787 202.217 28.568 208.169 30.8987C208.029 29.6333 207.903 27.692 208.225 26.3107C208.516 25.0613 210.102 18.3573 210.102 18.3573C210.102 18.3573 209.623 17.3987 209.623 15.9813C209.623 13.7573 210.912 12.0959 212.517 12.0959C213.881 12.0959 214.542 13.1213 214.542 14.3494C214.542 15.7213 213.668 17.7733 213.216 19.676C212.839 21.2679 214.015 22.568 215.585 22.568C218.429 22.568 220.615 19.5693 220.615 15.2413C220.615 11.4106 217.863 8.73206 213.932 8.73206C209.38 8.73206 206.708 12.1466 206.708 15.6747C206.708 17.0493 207.237 18.5254 207.898 19.3253C208.029 19.484 208.048 19.624 208.009 19.7853L207.565 21.5986C207.495 21.892 207.333 21.9547 207.029 21.8134C205.031 20.8827 203.781 17.9613 203.781 15.6146C203.781 10.568 207.448 5.93201 214.354 5.93201C219.904 5.93201 224.217 9.88794 224.217 15.1733C224.217 20.688 220.741 25.1254 215.915 25.1254C214.293 25.1254 212.77 24.2841 212.248 23.288L211.25 27.092C210.889 28.4827 209.915 30.2253 209.261 31.2866C210.76 31.7494 212.351 32 214 32C222.836 32 230 24.8361 230 16C230 7.16272 222.836 0 214 0Z" fill="#FFFFFF" fill-opacity="1.000000" fill-rule="nonzero"/>
	<path id="Path" d="M164 6.32532C162.823 6.85596 161.557 7.21326 160.229 7.37439C161.585 6.55005 162.626 5.2439 163.116 3.68726C161.848 4.45068 160.443 5.00562 158.947 5.30481C157.75 4.0094 156.042 3.19995 154.155 3.19995C149.916 3.19995 146.801 7.2146 147.759 11.3823C142.304 11.1047 137.467 8.45178 134.228 4.41956C132.508 7.41492 133.336 11.3335 136.259 13.3179C135.184 13.2827 134.171 12.9835 133.287 12.4841C133.215 15.5715 135.395 18.4601 138.552 19.103C137.628 19.3575 136.616 19.4171 135.586 19.2167C136.421 21.8643 138.845 23.7904 141.72 23.8446C138.96 26.0414 135.483 27.0227 132 26.6058C134.905 28.4968 138.357 29.6 142.064 29.6C154.253 29.6 161.14 19.149 160.724 9.77563C162.007 8.83484 163.12 7.66125 164 6.32532Z" fill="#FFFFFF" fill-opacity="1.000000" fill-rule="nonzero"/>
	<path id="Shape" d="M82 0C73.1641 0 66 7.16394 66 16C66 24.8361 73.1641 32 82 32C90.8359 32 98 24.8361 98 16C98 7.16394 90.8359 0 82 0ZM87.9214 22.5227C85.1187 22.7147 78.876 22.7147 76.0771 22.5227C73.0425 22.3147 72.6895 20.8293 72.6665 16C72.6895 11.1614 73.0469 9.6853 76.0771 9.47729C78.876 9.28528 85.1201 9.28528 87.9214 9.47729C90.9575 9.6853 91.3096 11.1707 91.3335 16C91.3096 20.8386 90.9531 22.3147 87.9214 22.5227ZM85.8892 15.9946L79.3335 12.8773L79.3335 19.1227L85.8892 15.9946Z" clip-rule="evenodd" fill="#FFFFFF" fill-opacity="1.000000" fill-rule="evenodd"/>
</svg>
