<svg width="580.000000" height="525.000000" viewBox="0 0 580 525" fill="none" xmlns="http://www.w3.org/2000/svg" xmlns:xlink="http://www.w3.org/1999/xlink">
	<desc>
			Created with Pixso.
	</desc>
	<defs>
		<filter id="filter_0_884_dd" x="0.000000" y="0.000000" width="300.000000" height="275.000000" filterUnits="userSpaceOnUse" color-interpolation-filters="sRGB">
			<feFlood flood-opacity="0" result="BackgroundImageFix"/>
			<feColorMatrix in="SourceAlpha" type="matrix" values="0 0 0 0 0 0 0 0 0 0 0 0 0 0 0 0 0 0 127 0" result="hardAlpha"/>
			<feOffset dx="0" dy="10"/>
			<feGaussianBlur stdDeviation="6.66667"/>
			<feComposite in2="hardAlpha" operator="out" k2="-1" k3="1"/>
			<feColorMatrix type="matrix" values="0 0 0 0 0.31373 0 0 0 0 0.33725 0 0 0 0 0.38431 0 0 0 0.031 0"/>
			<feBlend mode="normal" in2="BackgroundImageFix" result="effect_dropShadow_1"/>
			<feBlend mode="normal" in="SourceGraphic" in2="effect_dropShadow_1" result="shape"/>
		</filter>
		<filter id="filter_0_916_dd" x="280.000000" y="0.000000" width="300.000000" height="275.000000" filterUnits="userSpaceOnUse" color-interpolation-filters="sRGB">
			<feFlood flood-opacity="0" result="BackgroundImageFix"/>
			<feColorMatrix in="SourceAlpha" type="matrix" values="0 0 0 0 0 0 0 0 0 0 0 0 0 0 0 0 0 0 127 0" result="hardAlpha"/>
			<feOffset dx="0" dy="10"/>
			<feGaussianBlur stdDeviation="6.66667"/>
			<feComposite in2="hardAlpha" operator="out" k2="-1" k3="1"/>
			<feColorMatrix type="matrix" values="0 0 0 0 0.31373 0 0 0 0 0.33725 0 0 0 0 0.38431 0 0 0 0.031 0"/>
			<feBlend mode="normal" in2="BackgroundImageFix" result="effect_dropShadow_1"/>
			<feBlend mode="normal" in="SourceGraphic" in2="effect_dropShadow_1" result="shape"/>
		</filter>
		<filter id="filter_0_922_dd" x="140.000000" y="250.000000" width="300.000000" height="275.000000" filterUnits="userSpaceOnUse" color-interpolation-filters="sRGB">
			<feFlood flood-opacity="0" result="BackgroundImageFix"/>
			<feColorMatrix in="SourceAlpha" type="matrix" values="0 0 0 0 0 0 0 0 0 0 0 0 0 0 0 0 0 0 127 0" result="hardAlpha"/>
			<feOffset dx="0" dy="10"/>
			<feGaussianBlur stdDeviation="6.66667"/>
			<feComposite in2="hardAlpha" operator="out" k2="-1" k3="1"/>
			<feColorMatrix type="matrix" values="0 0 0 0 0.31373 0 0 0 0 0.33725 0 0 0 0 0.38431 0 0 0 0.031 0"/>
			<feBlend mode="normal" in2="BackgroundImageFix" result="effect_dropShadow_1"/>
			<feBlend mode="normal" in="SourceGraphic" in2="effect_dropShadow_1" result="shape"/>
		</filter>
	</defs>
	<g filter="url(#filter_0_884_dd)">
		<rect id="Rectangle Copy 4" x="20.000000" y="10.000000" rx="4.000000" width="260.000000" height="235.000000" fill="#FFFFFF" fill-opacity="1.000000"/>
	</g>
	<rect id="Rectangle Copy 4" x="20.000000" y="10.000000" rx="4.000000" width="260.000000" height="235.000000" stroke="#979797" stroke-opacity="0" stroke-width="0.000000"/>
	<rect id="Rectangle" x="36.207764" y="26.206909" width="230.285721" height="202.586212" fill="#FAFAFA" fill-opacity="1.000000"/>
	<rect id="Rectangle" x="36.207764" y="26.206909" width="230.285721" height="202.586212" stroke="#E5E9EA" stroke-opacity="1.000000" stroke-width="1.000000"/>
	<rect id="Rectangle" x="36.207764" y="127.500000" width="230.285721" height="0.791352" fill="#E5E9EA" fill-opacity="1.000000"/>
	<rect id="Rectangle" x="36.207764" y="127.500000" width="230.285721" height="0.791352" stroke="#979797" stroke-opacity="0" stroke-width="0.000000"/>
	<rect id="Rectangle" x="36.207764" y="146.492432" width="230.285721" height="0.791352" fill="#E5E9EA" fill-opacity="1.000000"/>
	<rect id="Rectangle" x="36.207764" y="146.492432" width="230.285721" height="0.791352" stroke="#979797" stroke-opacity="0" stroke-width="0.000000"/>
	<rect id="Rectangle" x="36.207764" y="165.484924" width="230.285721" height="0.791352" fill="#E5E9EA" fill-opacity="1.000000"/>
	<rect id="Rectangle" x="36.207764" y="165.484924" width="230.285721" height="0.791352" stroke="#979797" stroke-opacity="0" stroke-width="0.000000"/>
	<rect id="Rectangle" x="36.207764" y="184.477356" width="230.285721" height="0.791352" fill="#E5E9EA" fill-opacity="1.000000"/>
	<rect id="Rectangle" x="36.207764" y="184.477356" width="230.285721" height="0.791352" stroke="#979797" stroke-opacity="0" stroke-width="0.000000"/>
	<rect id="Rectangle" x="36.207764" y="51.530151" width="230.285721" height="0.791352" fill="#E5E9EA" fill-opacity="1.000000"/>
	<rect id="Rectangle" x="36.207764" y="51.530151" width="230.285721" height="0.791352" stroke="#979797" stroke-opacity="0" stroke-width="0.000000"/>
	<rect id="Rectangle" x="36.207764" y="32.537720" width="230.285721" height="0.791352" fill="#E5E9EA" fill-opacity="1.000000"/>
	<rect id="Rectangle" x="36.207764" y="32.537720" width="230.285721" height="0.791352" stroke="#979797" stroke-opacity="0" stroke-width="0.000000"/>
	<rect id="Rectangle" x="36.207764" y="70.522644" width="230.285721" height="0.791352" fill="#E5E9EA" fill-opacity="1.000000"/>
	<rect id="Rectangle" x="36.207764" y="70.522644" width="230.285721" height="0.791352" stroke="#979797" stroke-opacity="0" stroke-width="0.000000"/>
	<rect id="Rectangle" x="36.207764" y="89.515076" width="230.285721" height="0.791352" fill="#E5E9EA" fill-opacity="1.000000"/>
	<rect id="Rectangle" x="36.207764" y="89.515076" width="230.285721" height="0.791352" stroke="#979797" stroke-opacity="0" stroke-width="0.000000"/>
	<rect id="Rectangle" x="36.207764" y="108.507568" width="230.285721" height="0.791352" fill="#E5E9EA" fill-opacity="1.000000"/>
	<rect id="Rectangle" x="36.207764" y="108.507568" width="230.285721" height="0.791352" stroke="#979797" stroke-opacity="0" stroke-width="0.000000"/>
	<rect id="Rectangle" x="36.207764" y="203.469849" width="230.285721" height="0.791352" fill="#E5E9EA" fill-opacity="1.000000"/>
	<rect id="Rectangle" x="36.207764" y="203.469849" width="230.285721" height="0.791352" stroke="#979797" stroke-opacity="0" stroke-width="0.000000"/>
	<rect id="Rectangle" x="36.207764" y="222.462280" width="230.285721" height="0.791352" fill="#E5E9EA" fill-opacity="1.000000"/>
	<rect id="Rectangle" x="36.207764" y="222.462280" width="230.285721" height="0.791352" stroke="#979797" stroke-opacity="0" stroke-width="0.000000"/>
	<path id="Rectangle" d="M42.2856 127.5L73.3506 127.5L73.3506 173.147C73.3506 175.908 71.1121 178.147 68.3506 178.147L47.2856 178.147C44.5242 178.147 42.2856 175.908 42.2856 173.147L42.2856 127.5Z" fill="#242D52" fill-opacity="1.000000" fill-rule="evenodd"/>
	<path id="Rectangle" d="M73.3506 127.5L73.3506 173.147C73.3506 175.908 71.1121 178.147 68.3506 178.147L47.2856 178.147C44.5242 178.147 42.2856 175.908 42.2856 173.147L42.2856 127.5L73.3506 127.5Z" stroke="#979797" stroke-opacity="0" stroke-width="0.000000"/>
	<path id="Rectangle Copy 6" d="M42.2856 127.5L73.3506 127.5L73.3506 160.485C73.3506 163.246 71.1121 165.485 68.3506 165.485L47.2856 165.485C44.5242 165.485 42.2856 163.246 42.2856 160.485L42.2856 127.5Z" fill="#F3603C" fill-opacity="1.000000" fill-rule="evenodd"/>
	<path id="Rectangle Copy 6" d="M73.3506 127.5L73.3506 160.485C73.3506 163.246 71.1121 165.485 68.3506 165.485L47.2856 165.485C44.5242 165.485 42.2856 163.246 42.2856 160.485L42.2856 127.5L73.3506 127.5Z" stroke="#979797" stroke-opacity="0" stroke-width="0.000000"/>
	<path id="Rectangle Copy" d="M89.5585 127.234L120.623 127.234L120.623 92.658C120.623 89.8966 118.385 87.658 115.623 87.658L94.5585 87.658C91.797 87.658 89.5585 89.8966 89.5585 92.658L89.5585 127.234Z" fill="#F3603C" fill-opacity="1.000000" fill-rule="evenodd"/>
	<path id="Rectangle Copy" d="M120.623 127.234L120.623 92.658C120.623 89.8966 118.385 87.658 115.623 87.658L94.5585 87.658C91.797 87.658 89.5585 89.8966 89.5585 92.658L89.5585 127.234L120.623 127.234Z" stroke="#979797" stroke-opacity="0" stroke-width="0.000000"/>
	<path id="Rectangle Copy 7" d="M89.5585 127.234L120.623 127.234L120.623 179.224C120.623 181.986 118.385 184.224 115.623 184.224L94.5585 184.224C91.797 184.224 89.5585 181.986 89.5585 179.224L89.5585 127.234Z" fill="#242D52" fill-opacity="1.000000" fill-rule="evenodd"/>
	<path id="Rectangle Copy 7" d="M120.623 127.234L120.623 179.224C120.623 181.986 118.385 184.224 115.623 184.224L94.5585 184.224C91.797 184.224 89.5585 181.986 89.5585 179.224L89.5585 127.234L120.623 127.234Z" stroke="#979797" stroke-opacity="0" stroke-width="0.000000"/>
	<path id="Rectangle Copy 2" d="M182.078 127.5L213.143 127.5L213.143 56.1925C213.143 53.4311 210.904 51.1925 208.143 51.1925L187.078 51.1925C184.316 51.1925 182.078 53.4311 182.078 56.1925L182.078 127.5Z" fill="#242D52" fill-opacity="1.000000" fill-rule="evenodd"/>
	<path id="Rectangle Copy 2" d="M213.143 127.5L213.143 56.1925C213.143 53.4311 210.904 51.1925 208.143 51.1925L187.078 51.1925C184.316 51.1925 182.078 53.4311 182.078 56.1925L182.078 127.5L213.143 127.5Z" stroke="#979797" stroke-opacity="0" stroke-width="0.000000"/>
	<path id="Rectangle Copy 8" d="M182.078 127.5L213.143 127.5L213.143 75.2694C213.143 72.508 210.904 70.2694 208.143 70.2694L187.078 70.2694C184.316 70.2694 182.078 72.508 182.078 75.2694L182.078 127.5Z" fill="#F3603C" fill-opacity="1.000000" fill-rule="evenodd"/>
	<path id="Rectangle Copy 8" d="M213.143 127.5L213.143 75.2694C213.143 72.508 210.904 70.2694 208.143 70.2694L187.078 70.2694C184.316 70.2694 182.078 72.508 182.078 75.2694L182.078 127.5L213.143 127.5Z" stroke="#979797" stroke-opacity="0" stroke-width="0.000000"/>
	<path id="Rectangle Copy 9" d="M229.351 127.5L260.416 127.5L260.416 185.977C260.416 188.738 258.177 190.977 255.416 190.977L234.351 190.977C231.589 190.977 229.351 188.738 229.351 185.977L229.351 127.5Z" fill="#242D52" fill-opacity="1.000000" fill-rule="evenodd"/>
	<path id="Rectangle Copy 9" d="M260.416 127.5L260.416 185.977C260.416 188.738 258.177 190.977 255.416 190.977L234.351 190.977C231.589 190.977 229.351 188.738 229.351 185.977L229.351 127.5L260.416 127.5Z" stroke="#979797" stroke-opacity="0" stroke-width="0.000000"/>
	<path id="Rectangle Copy 3" d="M229.351 127.5L260.416 127.5L260.416 173.282C260.416 176.043 258.177 178.282 255.416 178.282L234.351 178.282C231.589 178.282 229.351 176.043 229.351 173.282L229.351 127.5Z" fill="#F3603C" fill-opacity="1.000000" fill-rule="evenodd"/>
	<path id="Rectangle Copy 3" d="M260.416 127.5L260.416 173.282C260.416 176.043 258.177 178.282 255.416 178.282L234.351 178.282C231.589 178.282 229.351 176.043 229.351 173.282L229.351 127.5L260.416 127.5Z" stroke="#979797" stroke-opacity="0" stroke-width="0.000000"/>
	<path id="Rectangle Copy 5" d="M135.48 127.5L166.545 127.5L166.545 217.716C166.545 220.477 164.307 222.716 161.545 222.716L140.48 222.716C137.719 222.716 135.48 220.477 135.48 217.716L135.48 127.5Z" fill="#F3603C" fill-opacity="1.000000" fill-rule="evenodd"/>
	<path id="Rectangle Copy 5" d="M166.545 127.5L166.545 217.716C166.545 220.477 164.307 222.716 161.545 222.716L140.48 222.716C137.719 222.716 135.48 220.477 135.48 217.716L135.48 127.5L166.545 127.5Z" stroke="#979797" stroke-opacity="0" stroke-width="0.000000"/>
	<path id="Rectangle Copy 10" d="M135.48 127.5L166.545 127.5L166.545 160.586C166.545 163.348 164.307 165.586 161.545 165.586L140.48 165.586C137.719 165.586 135.48 163.348 135.48 160.586L135.48 127.5Z" fill="#242D52" fill-opacity="1.000000" fill-rule="evenodd"/>
	<path id="Rectangle Copy 10" d="M166.545 127.5L166.545 160.586C166.545 163.348 164.307 165.586 161.545 165.586L140.48 165.586C137.719 165.586 135.48 163.348 135.48 160.586L135.48 127.5L166.545 127.5Z" stroke="#979797" stroke-opacity="0" stroke-width="0.000000"/>
	<g filter="url(#filter_0_916_dd)">
		<rect id="Rectangle Copy 4" x="300.000000" y="10.000000" rx="4.000000" width="260.000000" height="235.000000" fill="#FFFFFF" fill-opacity="1.000000"/>
	</g>
	<rect id="Rectangle Copy 4" x="300.000000" y="10.000000" rx="4.000000" width="260.000000" height="235.000000" stroke="#979797" stroke-opacity="0" stroke-width="0.000000"/>
	<ellipse id="Oval" cx="430.337646" cy="127.500000" rx="81.038963" ry="81.034485" fill="#D8D8D8" fill-opacity="0"/>
	<ellipse id="Oval" cx="430.337646" cy="127.500000" rx="61.038963" ry="61.034485" stroke="#FFFFFF" stroke-opacity="1.000000" stroke-width="40.000000"/>
	<ellipse id="Oval Copy" cx="430.337646" cy="127.500000" rx="81.038963" ry="81.034485" fill="#D8D8D8" fill-opacity="0"/>
	<ellipse id="Oval Copy" cx="430.337646" cy="127.500000" rx="61.038963" ry="61.034485" stroke="#F3603C" stroke-opacity="1.000000" stroke-width="40.000000" stroke-dasharray="502"/>
	<ellipse id="Oval Copy 2" cx="430.337646" cy="127.500000" rx="81.038963" ry="81.034485" fill="#D8D8D8" fill-opacity="0"/>
	<ellipse id="Oval Copy 2" cx="430.337646" cy="127.500000" rx="61.038963" ry="61.034485" stroke="#242D52" stroke-opacity="1.000000" stroke-width="40.000000" stroke-dasharray="340"/>
	<g filter="url(#filter_0_922_dd)">
		<rect id="Rectangle Copy 4" x="160.000000" y="260.000000" rx="4.000000" width="260.000000" height="235.000000" fill="#FFFFFF" fill-opacity="1.000000"/>
	</g>
	<rect id="Rectangle Copy 4" x="160.000000" y="260.000000" rx="4.000000" width="260.000000" height="235.000000" stroke="#979797" stroke-opacity="0" stroke-width="0.000000"/>
	<rect id="Rectangle" x="176.207764" y="400.459778" rx="4.000000" width="106.025970" height="78.333336" fill="#F3603C" fill-opacity="1.000000"/>
	<rect id="Rectangle" x="176.207764" y="400.459778" rx="4.000000" width="106.025970" height="78.333336" stroke="#E5E9EA" stroke-opacity="0" stroke-width="0.000000"/>
	<path id="+1.5%" d="M199.251 455.966L199.251 459.873L197.471 459.873L197.471 455.966L193.563 455.966L193.563 454.185L197.471 454.185L197.471 450.278L199.251 450.278L199.251 454.185L203.149 454.185L203.149 455.966L199.251 455.966ZM211.515 447.805L211.515 461.911L209.24 461.911L209.24 450.199L205.926 453.176L205.926 450.802L209.359 447.805L211.515 447.805ZM218.937 461.703C218.663 461.974 218.335 462.109 217.953 462.109C217.577 462.109 217.25 461.972 216.973 461.698Q216.741 461.469 216.639 461.191Q216.558 460.972 216.558 460.724C216.558 460.341 216.696 460.013 216.973 459.74C217.25 459.466 217.577 459.329 217.953 459.329C218.335 459.329 218.663 459.466 218.937 459.74C219.211 460.013 219.347 460.341 219.347 460.724Q219.347 461.005 219.249 461.246Q219.146 461.496 218.937 461.703ZM230.053 460.768C229.16 461.655 227.988 462.099 226.537 462.099C225.653 462.099 224.848 461.932 224.123 461.599C223.397 461.266 222.807 460.758 222.352 460.076C221.897 459.393 221.67 458.594 221.67 457.677Q221.67 457.39 221.719 456.965L224.004 456.826Q223.935 457.291 223.935 457.539Q223.935 458.527 224.419 459.117Q224.536 459.259 224.682 459.379Q224.908 459.564 225.163 459.694Q225.749 459.992 226.487 459.992C227.298 459.992 227.936 459.75 228.401 459.265C228.866 458.78 229.099 458.142 229.099 457.351C229.099 455.603 227.994 454.729 225.785 454.729L222.154 454.729L222.886 447.815L230.751 447.815L230.751 449.872L224.875 449.872L224.568 452.791L226.111 452.791Q228.762 452.791 230.078 453.953C230.955 454.728 231.394 455.834 231.394 457.272C231.394 458.716 230.947 459.881 230.053 460.768ZM236.95 453.575Q236.397 453.809 235.744 453.809Q235.097 453.809 234.546 453.579Q234.002 453.351 233.553 452.899Q233.115 452.459 232.889 451.929Q232.648 451.363 232.648 450.693C232.648 449.843 232.951 449.114 233.558 448.507C234.164 447.901 234.893 447.597 235.744 447.597Q236.397 447.597 236.95 447.832Q237.487 448.059 237.93 448.507C238.53 449.114 238.83 449.843 238.83 450.693C238.83 451.551 238.53 452.286 237.93 452.899Q237.487 453.347 236.95 453.575ZM236.832 461.921L234.873 461.921L242.312 447.785L244.291 447.785L236.832 461.921ZM235.744 452.237C235.322 452.237 234.959 452.087 234.656 451.786Q234.432 451.565 234.318 451.297Q234.201 451.02 234.201 450.693Q234.201 450.356 234.326 450.074Q234.44 449.819 234.656 449.61C234.959 449.317 235.322 449.17 235.744 449.17C236.172 449.17 236.535 449.318 236.832 449.615C237.129 449.912 237.277 450.271 237.277 450.693C237.277 451.122 237.13 451.486 236.837 451.786C236.543 452.087 236.179 452.237 235.744 452.237ZM245.701 461.169C245.104 461.776 244.38 462.079 243.529 462.079C242.665 462.079 241.932 461.777 241.328 461.174Q240.883 460.728 240.656 460.191Q240.423 459.636 240.423 458.983C240.423 458.126 240.726 457.395 241.333 456.792Q241.785 456.342 242.33 456.116Q242.882 455.887 243.529 455.887C244.373 455.887 245.096 456.188 245.696 456.792C246.296 457.395 246.596 458.126 246.596 458.983C246.596 459.834 246.297 460.562 245.701 461.169ZM243.529 460.516C243.094 460.516 242.728 460.366 242.431 460.066C242.134 459.766 241.986 459.405 241.986 458.983C241.986 458.548 242.134 458.182 242.431 457.885C242.728 457.588 243.094 457.44 243.529 457.44C243.945 457.44 244.306 457.591 244.612 457.895C244.919 458.198 245.072 458.561 245.072 458.983C245.072 459.405 244.921 459.766 244.617 460.066C244.314 460.366 243.951 460.516 243.529 460.516Z" clip-rule="evenodd" fill="#FFFFFF" fill-opacity="1.000000" fill-rule="evenodd"/>
	<rect id="Rectangle" x="297.766235" y="400.459778" rx="4.000000" width="106.025970" height="78.333336" fill="#FAFAFA" fill-opacity="1.000000"/>
	<rect id="Rectangle" x="297.766235" y="400.459778" rx="4.000000" width="106.025970" height="78.333336" stroke="#E5E9EA" stroke-opacity="0" stroke-width="0.000000"/>
	<path id="88.24%" d="M322.392 461.594Q321.275 462.099 319.87 462.099Q318.465 462.099 317.342 461.589Q316.644 461.273 316.125 460.77L316.125 460.77Q315.81 460.465 315.562 460.091Q315.4 459.848 315.278 459.586Q314.904 458.783 314.904 457.806Q314.904 456.762 315.331 455.94L315.331 455.94Q315.43 455.749 315.552 455.57Q315.728 455.311 315.941 455.087Q316.51 454.489 317.338 454.136Q316.728 453.786 316.314 453.278L316.314 453.278Q316.177 453.11 316.061 452.924Q315.897 452.66 315.791 452.375L315.791 452.375Q315.596 451.852 315.596 451.257Q315.596 450.404 315.934 449.717Q316.235 449.106 316.803 448.626Q317.009 448.452 317.235 448.308L317.235 448.308Q318.328 447.607 319.87 447.607Q321.328 447.607 322.388 448.257L322.388 448.257Q322.658 448.423 322.902 448.631Q323.478 449.121 323.777 449.744Q324.104 450.422 324.104 451.257Q324.104 451.875 323.899 452.415Q323.798 452.679 323.649 452.924Q323.513 453.147 323.347 453.345Q322.958 453.81 322.402 454.136Q323.181 454.48 323.734 455.045L323.734 455.045Q323.975 455.292 324.173 455.58Q324.316 455.787 324.427 456.01L324.427 456.01Q324.826 456.808 324.826 457.806Q324.826 458.783 324.452 459.586L324.452 459.586Q324.33 459.848 324.168 460.091Q323.917 460.469 323.598 460.778L323.598 460.778Q323.083 461.277 322.392 461.594ZM319.87 453.434C319.263 453.434 318.752 453.237 318.337 452.845C317.921 452.453 317.713 451.966 317.713 451.386C317.713 450.819 317.921 450.342 318.337 449.957C318.752 449.571 319.263 449.378 319.87 449.378C320.47 449.378 320.978 449.571 321.393 449.957C321.809 450.342 322.017 450.819 322.017 451.386C322.017 451.96 321.807 452.444 321.388 452.84C320.97 453.236 320.464 453.434 319.87 453.434ZM319.87 460.041C319.098 460.041 318.459 459.814 317.951 459.359C317.443 458.904 317.189 458.297 317.189 457.539C317.189 456.793 317.443 456.197 317.951 455.748C318.459 455.3 319.098 455.076 319.87 455.076C320.628 455.076 321.261 455.3 321.769 455.748C322.277 456.197 322.531 456.793 322.531 457.539C322.531 458.29 322.277 458.896 321.769 459.354C321.261 459.812 320.628 460.041 319.87 460.041ZM333.469 461.594Q332.352 462.099 330.947 462.099Q329.542 462.099 328.419 461.589Q327.721 461.273 327.202 460.77Q326.887 460.465 326.639 460.091Q326.477 459.848 326.355 459.586Q325.981 458.783 325.981 457.806Q325.981 456.762 326.408 455.94Q326.507 455.749 326.629 455.57C327.061 454.937 327.656 454.459 328.414 454.136C327.874 453.826 327.448 453.422 327.138 452.924Q326.974 452.66 326.868 452.375Q326.673 451.852 326.673 451.257Q326.673 450.404 327.011 449.717Q327.312 449.106 327.88 448.626Q328.086 448.452 328.312 448.308Q329.405 447.607 330.947 447.607Q332.405 447.607 333.464 448.257Q333.735 448.423 333.979 448.631C334.78 449.314 335.181 450.189 335.181 451.257Q335.181 451.875 334.975 452.415Q334.875 452.679 334.726 452.924C334.422 453.422 334.007 453.826 333.479 454.136C334.225 454.466 334.815 454.947 335.25 455.58C335.685 456.213 335.903 456.955 335.903 457.806Q335.903 458.783 335.529 459.586Q335.407 459.848 335.245 460.091Q334.994 460.469 334.675 460.778Q334.16 461.277 333.469 461.594ZM330.947 453.434C330.34 453.434 329.829 453.237 329.414 452.845Q329.117 452.565 328.962 452.221Q328.79 451.842 328.79 451.386Q328.79 450.96 328.946 450.603Q329.102 450.246 329.414 449.957C329.829 449.571 330.34 449.378 330.947 449.378Q331.492 449.378 331.936 449.59Q332.225 449.728 332.47 449.957C332.886 450.342 333.094 450.819 333.094 451.386Q333.094 451.81 332.941 452.17Q332.784 452.539 332.465 452.84C332.047 453.236 331.54 453.434 330.947 453.434ZM330.947 460.041C330.175 460.041 329.536 459.814 329.028 459.359C328.52 458.904 328.266 458.297 328.266 457.539C328.266 456.793 328.52 456.197 329.028 455.748C329.536 455.3 330.175 455.076 330.947 455.076C331.705 455.076 332.338 455.3 332.846 455.748C333.354 456.197 333.608 456.793 333.608 457.539C333.608 458.29 333.354 458.896 332.846 459.354C332.338 459.812 331.705 460.041 330.947 460.041ZM340.367 461.703C340.093 461.974 339.765 462.109 339.382 462.109C339.007 462.109 338.68 461.972 338.403 461.698Q338.171 461.469 338.068 461.191Q337.988 460.972 337.988 460.724C337.988 460.341 338.126 460.013 338.403 459.74C338.68 459.466 339.007 459.329 339.382 459.329C339.765 459.329 340.093 459.466 340.367 459.74C340.641 460.013 340.777 460.341 340.777 460.724Q340.777 461.005 340.679 461.246Q340.576 461.496 340.367 461.703ZM352.695 459.853L352.695 461.911L342.961 461.911L342.961 460.19L348.6 454.403C349.543 453.434 350.014 452.51 350.014 451.633C350.014 450.954 349.813 450.425 349.411 450.046C349.009 449.666 348.464 449.477 347.779 449.477Q346.899 449.477 346.322 449.895Q346.192 449.989 346.077 450.105C345.661 450.524 345.454 451.191 345.454 452.108L345.454 453.147L343.188 452.929L343.188 452.138Q343.188 450.224 344.128 449.084Q344.266 448.916 344.425 448.765Q344.603 448.595 344.8 448.449Q345.965 447.587 347.769 447.587C349.088 447.587 350.166 447.947 351.003 448.666C351.841 449.384 352.26 450.37 352.26 451.623C352.26 452.342 352.105 453.005 351.795 453.612C351.485 454.218 350.997 454.868 350.331 455.56L346.186 459.853L352.695 459.853ZM362.397 459.151L362.397 461.911L360.122 461.911L360.122 459.151L353.494 459.151L353.494 457.094L358.925 447.805L362.397 447.805L362.397 457.103L364.336 457.103L364.336 459.151L362.397 459.151ZM360.122 457.103L355.71 457.103L360.122 449.269L360.122 457.103ZM369.457 453.575Q368.904 453.809 368.251 453.809Q367.603 453.809 367.053 453.579Q366.509 453.351 366.059 452.899Q365.622 452.459 365.396 451.929Q365.154 451.363 365.154 450.693C365.154 449.843 365.458 449.114 366.064 448.507C366.671 447.901 367.4 447.597 368.251 447.597Q368.904 447.597 369.457 447.832Q369.994 448.059 370.437 448.507C371.037 449.114 371.337 449.843 371.337 450.693C371.337 451.551 371.037 452.286 370.437 452.899Q369.994 453.347 369.457 453.575ZM369.339 461.921L367.38 461.921L374.819 447.785L376.798 447.785L369.339 461.921ZM368.251 452.237C367.828 452.237 367.466 452.087 367.162 451.786C366.859 451.486 366.707 451.122 366.707 450.693C366.707 450.265 366.859 449.904 367.162 449.61C367.466 449.317 367.828 449.17 368.251 449.17C368.679 449.17 369.042 449.318 369.339 449.615C369.636 449.912 369.784 450.271 369.784 450.693C369.784 451.122 369.637 451.486 369.344 451.786C369.05 452.087 368.686 452.237 368.251 452.237ZM378.207 461.169C377.61 461.776 376.887 462.079 376.036 462.079C375.172 462.079 374.438 461.777 373.835 461.174Q373.389 460.728 373.163 460.191Q372.93 459.636 372.93 458.983C372.93 458.126 373.233 457.395 373.84 456.792Q374.292 456.342 374.837 456.116Q375.389 455.887 376.036 455.887C376.88 455.887 377.602 456.188 378.202 456.792C378.803 457.395 379.103 458.126 379.103 458.983C379.103 459.834 378.804 460.562 378.207 461.169ZM376.036 460.516C375.601 460.516 375.235 460.366 374.938 460.066C374.641 459.766 374.493 459.405 374.493 458.983C374.493 458.548 374.641 458.182 374.938 457.885C375.235 457.588 375.601 457.44 376.036 457.44C376.451 457.44 376.812 457.591 377.119 457.895C377.426 458.198 377.579 458.561 377.579 458.983C377.579 459.405 377.427 459.766 377.124 460.066C376.821 460.366 376.458 460.516 376.036 460.516Z" clip-rule="evenodd" fill="#1E272E" fill-opacity="1.000000" fill-rule="evenodd"/>
	<rect id="Rectangle Copy 14" x="176.207764" y="276.206909" rx="4.000000" width="227.584412" height="108.045975" fill="#FAFAFA" fill-opacity="1.000000"/>
	<rect id="Rectangle Copy 14" x="176.207764" y="276.206909" rx="4.000000" width="227.584412" height="108.045975" stroke="#E5E9EA" stroke-opacity="0" stroke-width="0.000000"/>
	<path id="89.74%" d="M210.375 359.943Q207.99 361.019 204.994 361.019Q201.997 361.019 199.602 359.932Q198.112 359.256 197.005 358.184Q196.333 357.533 195.803 356.735Q195.458 356.216 195.198 355.658Q194.399 353.945 194.399 351.86Q194.399 349.634 195.31 347.88Q195.521 347.473 195.782 347.091Q196.158 346.539 196.612 346.061L196.612 346.061Q197.825 344.783 199.591 344.031Q198.291 343.286 197.407 342.201Q197.115 341.842 196.869 341.446Q196.518 340.884 196.292 340.275Q195.877 339.16 195.877 337.89Q195.877 336.07 196.597 334.605Q197.239 333.3 198.451 332.277Q198.891 331.906 199.371 331.598L199.371 331.598Q201.704 330.103 204.994 330.103Q208.104 330.103 210.365 331.49L210.365 331.49Q210.941 331.844 211.462 332.287Q212.69 333.333 213.33 334.662Q214.026 336.109 214.026 337.89Q214.026 339.209 213.588 340.36L213.588 340.361Q213.374 340.923 213.055 341.446C212.408 342.508 211.522 343.37 210.396 344.031Q212.057 344.766 213.236 345.971Q213.751 346.497 214.174 347.112Q214.478 347.554 214.715 348.029L214.715 348.03Q215.567 349.732 215.567 351.86Q215.567 353.945 214.768 355.658L214.768 355.659Q214.508 356.216 214.163 356.735Q213.627 357.542 212.947 358.2Q211.848 359.265 210.375 359.943ZM204.994 342.533Q203.811 342.533 202.856 342.067Q202.242 341.768 201.722 341.277Q201.09 340.68 200.759 339.947Q200.393 339.139 200.393 338.164Q200.393 337.256 200.726 336.493Q201.058 335.732 201.722 335.115Q202.22 334.653 202.803 334.364Q203.778 333.881 204.994 333.881Q206.157 333.881 207.104 334.334Q207.719 334.629 208.244 335.115Q208.908 335.732 209.24 336.493Q209.573 337.256 209.573 338.164Q209.573 339.07 209.247 339.837Q208.912 340.625 208.233 341.267Q207.636 341.831 206.928 342.144Q206.047 342.533 204.994 342.533ZM204.994 356.629C203.347 356.629 201.983 356.144 200.899 355.173C199.816 354.203 199.274 352.908 199.274 351.29C199.274 349.701 199.816 348.427 200.899 347.471C201.983 346.514 203.347 346.036 204.994 346.036C206.612 346.036 207.962 346.514 209.046 347.471C210.129 348.427 210.671 349.701 210.671 351.29C210.671 352.894 210.129 354.185 209.046 355.163C207.962 356.141 206.612 356.629 204.994 356.629ZM236.459 347.745L226.731 360.618L221.096 360.618L229.115 350.299C228.51 350.425 227.877 350.488 227.216 350.488C225.542 350.488 223.98 350.095 222.531 349.307Q222.049 349.045 221.606 348.728Q220.051 347.617 218.975 345.835C218.053 344.309 217.586 342.561 217.572 340.591C217.571 340.563 217.571 340.534 217.571 340.506C217.571 338.528 218.053 336.745 219.017 335.157Q219.836 333.808 220.964 332.808Q221.856 332.017 222.942 331.443Q223.608 331.092 224.308 330.836Q226.195 330.145 228.334 330.145Q230.749 330.145 232.814 330.995Q233.312 331.2 233.79 331.454Q235.053 332.126 236.047 333.08Q236.986 333.982 237.683 335.136Q238.092 335.812 238.384 336.534Q239.119 338.351 239.119 340.465C239.119 342.927 238.232 345.354 236.459 347.745ZM228.461 346.859Q226.601 346.859 225.206 346.053Q224.575 345.689 224.04 345.16C222.893 344.028 222.313 342.54 222.299 340.697C222.299 340.675 222.298 340.654 222.298 340.632C222.298 338.847 222.875 337.395 224.029 336.276Q224.618 335.705 225.311 335.326Q226.681 334.577 228.461 334.577Q230.507 334.577 231.957 335.507Q232.436 335.814 232.851 336.223Q233.22 336.588 233.508 337.009Q234.518 338.486 234.518 340.655Q234.518 342.299 233.858 343.611Q233.459 344.404 232.819 345.076Q232.178 345.749 231.4 346.168Q230.116 346.859 228.461 346.859ZM248.225 360.175C247.641 360.751 246.941 361.04 246.125 361.04C245.323 361.04 244.627 360.748 244.036 360.164C243.445 359.58 243.149 358.887 243.149 358.085C243.149 357.27 243.445 356.57 244.036 355.986C244.627 355.402 245.323 355.11 246.125 355.11C246.941 355.11 247.641 355.402 248.225 355.986C248.809 356.57 249.101 357.27 249.101 358.085C249.101 358.901 248.809 359.598 248.225 360.175ZM274.51 334.387L260.349 360.618L254.82 360.618L269.044 334.894L253.596 334.894L253.596 330.525L274.51 330.525L274.51 334.387ZM294.727 354.73L294.727 360.618L289.873 360.618L289.873 354.73L275.734 354.73L275.734 350.341L287.32 330.525L294.727 330.525L294.727 350.362L298.864 350.362L298.864 354.73L294.727 354.73ZM289.873 350.362L280.461 350.362L289.873 333.648L289.873 350.362ZM311.632 341.393C310.351 342.688 308.797 343.335 306.968 343.335C305.139 343.335 303.58 342.688 302.293 341.393Q301.359 340.454 300.877 339.323Q300.362 338.115 300.362 336.687Q300.362 335.366 300.819 334.229Q301.304 333.023 302.304 332.024C303.598 330.729 305.153 330.082 306.968 330.082C308.797 330.082 310.351 330.729 311.632 332.024Q312.602 333.005 313.082 334.186Q313.552 335.341 313.552 336.687Q313.552 338.055 313.075 339.228Q312.595 340.409 311.632 341.393ZM309.289 360.639L305.11 360.639L320.981 330.483L325.201 330.483L309.289 360.639ZM306.968 339.979C306.067 339.979 305.293 339.659 304.646 339.019Q304.168 338.547 303.926 337.974Q303.675 337.384 303.675 336.687Q303.675 335.967 303.943 335.366Q304.185 334.822 304.646 334.377C305.293 333.75 306.067 333.438 306.968 333.438Q307.703 333.438 308.317 333.71Q308.849 333.947 309.289 334.387C309.922 335.02 310.239 335.787 310.239 336.687C310.239 337.602 309.926 338.379 309.3 339.019Q308.887 339.441 308.386 339.678Q307.748 339.979 306.968 339.979ZM328.209 359.035C326.935 360.329 325.391 360.977 323.576 360.977C321.733 360.977 320.168 360.333 318.881 359.046C317.593 357.758 316.95 356.2 316.95 354.371Q316.95 352.991 317.441 351.816Q317.927 350.656 318.891 349.697C320.186 348.41 321.747 347.766 323.576 347.766Q324.89 347.766 326.019 348.223Q327.211 348.705 328.198 349.697C329.478 350.984 330.119 352.542 330.119 354.371C330.119 356.186 329.482 357.741 328.209 359.035ZM323.576 357.642C322.648 357.642 321.867 357.322 321.234 356.682Q320.759 356.202 320.522 355.625Q320.284 355.047 320.284 354.371C320.284 353.443 320.601 352.662 321.234 352.029Q321.65 351.613 322.151 351.379Q322.793 351.079 323.576 351.079C324.463 351.079 325.233 351.403 325.887 352.05C326.542 352.697 326.869 353.471 326.869 354.371C326.869 355.272 326.545 356.042 325.898 356.682C325.251 357.322 324.477 357.642 323.576 357.642Z" clip-rule="evenodd" fill="#343A40" fill-opacity="1.000000" fill-rule="evenodd"/>
</svg>
