<svg width="147.000000" height="24.000000" viewBox="0 0 147 24" fill="none" xmlns="http://www.w3.org/2000/svg" xmlns:xlink="http://www.w3.org/1999/xlink">
	<desc>
			Created with Pixso.
	</desc>
	<defs/>
	<path id="manage" d="M40.0143 8.55334L40.0143 16.8088L36.2322 16.8088L36.2322 8.18933Q36.2322 4.99756 34.7368 3.95886Q34.0153 3.45776 32.9457 3.45776Q32.1167 3.45776 31.4293 3.76965Q30.6787 4.11023 30.0969 4.82263Q28.9821 6.1875 28.9821 8.55334L28.9821 16.7922L25.2001 16.7922L25.2001 0.264648L28.9821 0.264648L28.9821 2.54785L29.0316 2.54785Q29.8499 1.55347 30.8914 0.935669Q31.1323 0.792725 31.385 0.670044Q32.2522 0.249023 33.164 0.0992432L33.164 0.0992432Q33.6674 0.0166016 34.1844 0.0166016Q36.243 0.0166016 37.5966 0.993408Q38.5127 1.65442 39.1059 2.76282L39.172 2.76282Q39.754 2.01331 40.4858 1.46301L40.4858 1.46301Q41.0623 1.02954 41.7319 0.719727Q41.7698 0.702148 41.8079 0.684937Q41.8152 0.681763 41.8224 0.678467Q43.3057 0.0166016 45.0845 0.0166016Q47.1401 0.0166016 48.4971 0.990356Q48.9825 1.33862 49.3784 1.81152Q50.8813 3.60657 50.8813 7.22974L50.8813 16.8088L47.0993 16.8088L47.0993 8.18933Q47.0993 4.96619 45.5973 3.9386Q44.8943 3.45776 43.8623 3.45776Q43.1666 3.45776 42.569 3.69995Q41.7481 4.03271 41.1125 4.82263Q40.0143 6.1875 40.0143 8.55334ZM64.6155 16.1682Q63.1315 17.057 61.1152 17.057C59.9812 17.057 58.9215 16.8557 57.9361 16.4531C56.9507 16.0505 56.1057 15.4854 55.401 14.7573C54.6964 14.0294 54.1403 13.136 53.7329 12.0771C53.3256 11.0184 53.1219 9.86035 53.1219 8.60291Q53.1219 6.77393 53.7281 5.17456Q53.7305 5.16821 53.7329 5.16174C54.1403 4.09192 54.6964 3.18201 55.401 2.43201C56.1057 1.68201 56.9479 1.09192 57.9278 0.661743Q58.248 0.52124 58.5784 0.411255Q59.7646 0.0166016 61.0822 0.0166016Q63.1292 0.0166016 64.6358 0.918945Q65.4994 1.43616 66.1854 2.25L66.2515 2.25L66.2515 0.264648L70.0335 0.264648L70.0335 16.7922L66.4167 16.7922L66.4167 14.5753L66.3671 14.5753Q65.6111 15.5718 64.6155 16.1682ZM61.7098 13.6158Q60.3743 13.6158 59.3535 13.049Q58.7711 12.7257 58.2911 12.2178C57.4103 11.2859 56.9699 10.0864 56.9699 8.61951C56.9699 7.06433 57.4241 5.81531 58.3325 4.87219Q58.9388 4.2428 59.6776 3.89343Q60.5989 3.45776 61.7263 3.45776Q62.7715 3.45776 63.6322 3.85608Q64.4308 4.22583 65.0707 4.93848C65.957 5.92554 66.4001 7.15259 66.4001 8.61951Q66.4001 10.1732 65.7208 11.3269Q65.438 11.807 65.0377 12.2178C64.1293 13.1498 63.02 13.6158 61.7098 13.6158ZM88.8224 7.06433L88.8224 16.8088L85.0404 16.8088L85.0404 8.04041C85.0404 7.18018 84.9633 6.45215 84.8092 5.85657C84.655 5.26099 84.4183 4.78955 84.099 4.44214Q83.7645 4.07812 83.3534 3.85535Q83.176 3.75916 82.9843 3.68933Q82.3484 3.45776 81.4565 3.45776C80.1573 3.45776 79.1196 3.89893 78.3434 4.78125C77.5673 5.66357 77.1791 6.89893 77.1791 8.48718L77.1791 16.7922L73.3971 16.7922L73.3971 0.264648L77.1791 0.264648L77.1791 2.53125L77.2286 2.53125Q77.8552 1.79407 78.6254 1.26685Q79.1343 0.918457 79.7059 0.661743Q80.2025 0.438721 80.7208 0.292847Q81.7021 0.0166016 82.7612 0.0166016C84.655 0.0166016 86.1387 0.592773 87.2122 1.74536C88.2856 2.89795 88.8224 4.6709 88.8224 7.06433ZM102.54 16.1682Q101.056 17.057 99.0398 17.057C97.9058 17.057 96.8461 16.8557 95.8606 16.4531C94.8752 16.0505 94.0302 15.4854 93.3256 14.7573Q92.2686 13.6654 91.6575 12.0771C91.2501 11.0184 91.0464 9.86035 91.0464 8.60291C91.0464 7.37866 91.2501 6.23157 91.6575 5.16174Q92.2686 3.55701 93.3256 2.43201Q93.5981 2.14185 93.8983 1.88354Q94.7616 1.1405 95.8524 0.661743C96.8323 0.231567 97.8838 0.0166016 99.0068 0.0166016Q101.054 0.0166016 102.56 0.918823Q103.424 1.43616 104.11 2.25L104.176 2.25L104.176 0.264648L107.958 0.264648L107.958 16.7922L104.341 16.7922L104.341 14.5753L104.292 14.5753Q103.536 15.5718 102.54 16.1682ZM99.6344 13.6158C98.2361 13.6158 97.0966 13.1498 96.2157 12.2178C95.3348 11.2859 94.8945 10.0864 94.8945 8.61951C94.8945 7.06433 95.3486 5.81531 96.257 4.87219C97.1653 3.9292 98.2966 3.45776 99.6509 3.45776C100.994 3.45776 102.109 3.95129 102.995 4.93848C103.882 5.92554 104.325 7.15259 104.325 8.61951C104.325 10.0864 103.87 11.2859 102.962 12.2178C102.054 13.1498 100.945 13.6158 99.6344 13.6158ZM121.924 23.319C120.978 23.6002 119.904 23.7408 118.704 23.7408C117.46 23.7408 116.26 23.5919 115.104 23.2941C113.948 22.9963 112.907 22.5717 111.982 22.0203L112.874 18.6783Q114.46 19.5221 115.673 19.9191C116.483 20.1838 117.421 20.3162 118.489 20.3162Q120.834 20.3162 122.123 19.1581C122.981 18.386 123.411 17.4154 123.411 16.2463L123.411 14.4927L123.345 14.4927C122.057 15.8383 120.389 16.511 118.341 16.511C116.81 16.511 115.434 16.1774 114.212 15.5101C112.99 14.8428 112.029 13.886 111.33 12.6396C110.631 11.3934 110.281 9.96509 110.281 8.35474C110.281 6.7666 110.614 5.33545 111.28 4.06152C111.947 2.78772 112.88 1.79224 114.08 1.07532C115.28 0.358398 116.634 0 118.142 0C119.1 0 120.022 0.170898 120.909 0.512817C121.795 0.854736 122.58 1.35107 123.262 2.00183L123.328 2.00183L123.328 0.264648L127.11 0.264648L127.11 15.0883C127.11 16.114 127.017 17.057 126.829 17.9172Q126.564 19.1375 125.981 20.1802Q125.948 20.2402 125.913 20.2997C125.489 21.0276 124.955 21.6425 124.311 22.1443C123.667 22.6461 122.871 23.0377 121.924 23.319ZM118.836 13.0203C117.471 13.0203 116.345 12.5873 115.459 11.7216C114.572 10.8557 114.129 9.69482 114.129 8.23901C114.129 6.83826 114.564 5.69666 115.434 4.81433Q115.827 4.41541 116.293 4.13672Q117.371 3.49084 118.836 3.49084Q120.075 3.49084 121.057 3.99329Q121.659 4.30127 122.164 4.79785C123.05 5.66907 123.493 6.79968 123.493 8.18933C123.493 9.59009 123.061 10.7454 122.197 11.6553Q121.739 12.1379 121.184 12.45Q120.171 13.0203 118.836 13.0203ZM141.993 16.2133C140.821 16.7758 139.464 17.057 137.922 17.057Q135.835 17.057 134.111 16.265Q133.858 16.1484 133.612 16.0146Q132.853 15.6019 132.221 15.045Q131.258 14.1959 130.589 13.012C129.852 11.705 129.483 10.2078 129.483 8.52026C129.483 7.27393 129.687 6.12134 130.094 5.0625C130.501 4.00366 131.063 3.10474 131.779 2.36584Q132.035 2.10071 132.316 1.8634Q133.208 1.10901 134.338 0.636963C135.329 0.223389 136.392 0.0166016 137.526 0.0166016C139.122 0.0166016 140.532 0.375 141.754 1.09192C142.976 1.80884 143.912 2.7959 144.561 4.05334C145.211 5.31067 145.536 6.73901 145.536 8.33826C145.536 8.94482 145.503 9.44666 145.437 9.84375L133.414 9.84375C133.656 11.0128 134.198 11.9338 135.04 12.6066C135.883 13.2794 136.909 13.6158 138.12 13.6158C139.827 13.6158 141.198 12.9651 142.233 11.6636L144.875 13.9302C144.126 14.8896 143.166 15.6508 141.993 16.2133ZM141.737 6.78308L133.48 6.78308C133.744 5.72424 134.256 4.90527 135.016 4.32629C135.775 3.74719 136.678 3.45776 137.724 3.45776C138.781 3.45776 139.654 3.75549 140.342 4.35107Q140.478 4.46899 140.603 4.59814Q141.422 5.44751 141.737 6.78308Z" clip-rule="evenodd" fill="#242D52" fill-opacity="1.000000" fill-rule="evenodd"/>
	<mask id="mask_0_797" fill="white">
		<path id="Combined Shape" d="M0 2.85718C0 1.27917 1.24719 0 2.78571 0C4.32422 0 5.57141 1.27917 5.57141 2.85718C5.57141 4.43506 4.32422 5.71423 2.78571 5.71423C1.24719 5.71423 0 4.43506 0 2.85718ZM12.8143 0C11.2758 0 10.0286 1.27917 10.0286 2.85718C10.0286 4.43506 11.2758 5.71423 12.8143 5.71423C14.3528 5.71423 15.6 4.43506 15.6 2.85718C15.6 1.27917 14.3528 0 12.8143 0ZM0 13.1428C0 11.5649 1.24719 10.2858 2.78571 10.2858C4.32422 10.2858 5.57141 11.5649 5.57141 13.1428C5.57141 14.7208 4.32422 16 2.78571 16C1.24719 16 0 14.7208 0 13.1428Z" clip-rule="evenodd" fill="" fill-opacity="1.000000" fill-rule="evenodd"/>
	</mask>
	<path id="Combined Shape" d="M0 2.85718C0 1.27917 1.24719 0 2.78571 0C4.32422 0 5.57141 1.27917 5.57141 2.85718C5.57141 4.43506 4.32422 5.71423 2.78571 5.71423C1.24719 5.71423 0 4.43506 0 2.85718ZM12.8143 0C11.2758 0 10.0286 1.27917 10.0286 2.85718C10.0286 4.43506 11.2758 5.71423 12.8143 5.71423C14.3528 5.71423 15.6 4.43506 15.6 2.85718C15.6 1.27917 14.3528 0 12.8143 0ZM0 13.1428C0 11.5649 1.24719 10.2858 2.78571 10.2858C4.32422 10.2858 5.57141 11.5649 5.57141 13.1428C5.57141 14.7208 4.32422 16 2.78571 16C1.24719 16 0 14.7208 0 13.1428Z" clip-rule="evenodd" fill="#F3603C" fill-opacity="1.000000" fill-rule="evenodd" mask="url(#mask_0_797)"/>
	<path id="Combined Shape" d="" fill="#979797" fill-opacity="0.000000" fill-rule="nonzero"/>
	<g opacity="0.500000">
		<ellipse id="Oval Copy 3" cx="12.814270" cy="13.257202" rx="2.785714" ry="2.857143" fill="#F3603C" fill-opacity="1.000000"/>
		<ellipse id="Oval Copy 3" cx="12.814270" cy="13.257202" rx="2.785714" ry="2.857143" stroke="#979797" stroke-opacity="0" stroke-width="0.000000"/>
	</g>
</svg>
